# xmcd CD database file
#
# Track frame offsets:
#	150
#	12196
#	131283
#
# Disc length: 2015 seconds
#
# Revision: 0
# Processed by: cddbd v1.5.2PL0 Copyright (c) Steve Scherf et al.
# Submitted via: CDex 1.70beta2
#
DISCID=1807dd03
DTITLE=orthodox - sentencia
DYEAR=2009
DGENRE=Jazz
TTITLE0=marcha de la santa sangre
TTITLE1=ascension
TTITLE2=y la muerte no tendra dominio
EXTD=YEAR: 2009
EXTT0=
EXTT1=
EXTT2=
PLAYORDER=
